# xmcd CD database file
#
# Track frame offsets:
#	150
#	25725
#	44400
#	60525
#	72975
#	88425
#	102450
#	126300
#	148800
#	170100
#
# Disc length: 2420 seconds
#
# Revision: 0
# Processed by: cddbd v1.5.1PL0 Copyright (c) Steve Scherf et al.
# Submitted via: CDex 1.50beta10
#
DISCID=9b09720a
DTITLE=Klangsynthese Label - Exist
DYEAR=2005
DGENRE=Electronic
TTITLE0=F-22 Raptor ATF/Escape code
TTITLE1=Tekinko/All night long
TTITLE2=Sb Yune/Sky Princess -Step Mix-
TTITLE3=F-22 Raptor ATF/The Goemon bath
TTITLE4=山崎篤史 feat. kuro/PriZm
TTITLE5=Tekinko/Overdose
TTITLE6=Sb Yune/MOON PHASE -Original Mix-
TTITLE7=Pinky/Where is the beat going to (long ver.)
TTITLE8=F-22 Raptor ATF/初夏の昼下がり
TTITLE9=Tekinko/Presentiment
EXTD=YEAR: 2005
EXTT0=
EXTT1=
EXTT2=
EXTT3=
EXTT4=
EXTT5=
EXTT6=
EXTT7=
EXTT8=
EXTT9=
PLAYORDER=
